<?xml version="1.0" standalone="no"?>
<!DOCTYPE svg PUBLIC "-//W3C//DTD SVG 20010904//EN"
 "http://www.w3.org/TR/2001/REC-SVG-20010904/DTD/svg10.dtd">
<svg version="1.0" xmlns="http://www.w3.org/2000/svg"
 width="16.000000pt" height="16.000000pt" viewBox="0 0 16.000000 16.000000"
 preserveAspectRatio="xMidYMid meet">
<metadata>
Created by potrace 1.11, written by Peter Selinger 2001-2013
</metadata>
<g transform="translate(0.000000,16.000000) scale(0.006154,-0.006154)"
fill="#000000" stroke="none">
<path d="M1252 2527 c-12 -14 -21 -83 -27 -204 -4 -89 -8 -103 -30 -103 -7 0
-17 -9 -20 -20 -4 -14 -15 -20 -35 -20 -27 0 -97 -39 -111 -61 -6 -10 4 -88
12 -92 2 -1 13 -7 24 -13 11 -6 25 -29 30 -51 6 -22 18 -47 28 -57 21 -22 22
-11 -7 -211 -3 -16 -17 -113 -31 -215 -36 -261 -30 -240 -73 -240 -57 0 -64
-9 -64 -86 0 -100 0 -102 23 -109 15 -5 19 -13 15 -29 -7 -27 27 -60 189 -186
161 -124 480 -326 469 -295 -3 7 -16 18 -29 25 -13 7 -27 20 -31 29 -3 9 -8
92 -9 186 -3 168 -3 170 21 192 18 17 23 29 18 47 -4 19 -1 26 15 31 23 7 24
10 23 109 -1 77 -7 86 -64 86 -40 0 -39 -1 -53 100 -4 25 -8 56 -10 70 -5 29
-31 213 -41 285 -3 28 -8 57 -9 65 -2 9 -6 42 -10 73 -6 50 -5 60 11 71 10 8
23 33 28 57 8 30 18 47 33 54 26 11 40 47 35 87 -4 31 -76 80 -114 76 -15 -2
-26 4 -32 19 -6 12 -18 24 -28 26 -13 4 -18 16 -19 44 -6 144 -19 257 -32 265
-19 12 -84 9 -95 -5z"/>
<path d="M220 2464 c-75 -20 -131 -55 -164 -103 -46 -65 -55 -106 -52 -216 3
-84 9 -118 40 -210 20 -60 41 -114 46 -119 5 -5 21 2 37 17 15 14 39 34 52 45
24 18 24 19 8 68 -78 238 -10 415 178 466 102 27 281 8 430 -47 16 -5 17 -5 5
4 -19 14 -176 65 -265 86 -98 23 -247 27 -315 9z"/>
<path d="M365 2338 c-48 -17 -91 -54 -110 -95 -21 -44 -33 -163 -16 -163 6 0
11 5 11 10 0 23 82 88 131 103 112 37 307 11 483 -64 71 -29 97 -35 95 -21 -4
25 4 51 21 69 l20 22 -53 24 c-116 55 -232 95 -335 116 -66 14 -207 13 -247
-1z"/>
<path d="M303 1855 c-91 -27 -180 -111 -234 -221 -29 -58 -34 -79 -34 -139 0
-110 43 -156 141 -151 104 6 227 106 286 233 87 184 6 326 -159 278z"/>
<path d="M1543 1814 c3 -16 8 -50 12 -75 5 -43 13 -53 92 -125 123 -112 296
-293 332 -348 8 -12 20 -26 27 -32 27 -22 182 -263 221 -344 100 -206 120
-352 65 -463 l-30 -59 29 6 c47 9 98 49 120 93 99 202 -107 626 -506 1042
-104 108 -282 273 -336 312 l-31 22 5 -29z"/>
<path d="M417 1388 l-37 -40 71 -86 c109 -133 409 -425 559 -545 348 -279 708
-481 995 -557 109 -29 154 -35 265 -33 117 1 190 25 249 84 61 61 82 127 77
247 -5 143 -63 308 -176 502 -57 97 -76 116 -31 30 231 -437 132 -719 -242
-697 -94 6 -99 6 -177 27 -138 36 -350 131 -520 233 -72 43 -221 142 -255 169
-5 5 -46 36 -90 70 -44 35 -82 65 -85 68 -3 3 -36 32 -74 65 -135 116 -326
315 -440 458 -21 26 -41 47 -45 46 -3 -1 -23 -19 -44 -41z"/>
<path d="M1015 590 c-3 -11 -10 -20 -14 -20 -5 0 -20 -11 -35 -25 -24 -22 -26
-31 -26 -101 0 -59 -4 -82 -17 -96 -10 -11 -16 -33 -15 -51 3 -45 -7 -55 -58
-61 -25 -2 -46 -5 -47 -5 -1 -1 -5 -17 -9 -36 -4 -23 -12 -35 -23 -35 -26 0
-61 -29 -61 -50 0 -24 38 -50 71 -49 13 0 249 0 524 0 275 0 512 1 527 3 34 4
58 23 58 46 0 13 -19 23 -67 40 -86 28 -186 75 -240 111 -23 16 -46 29 -52 29
-26 0 -328 189 -443 277 -31 24 -59 43 -62 43 -2 0 -8 -9 -11 -20z"/>
</g>
</svg>
